<?xml version="1.0" encoding="utf-8"?>
<!-- Generator: Adobe Illustrator 17.0.2, SVG Export Plug-In . SVG Version: 6.00 Build 0)  -->
<!DOCTYPE svg PUBLIC "-//W3C//DTD SVG 1.1//EN" "http://www.w3.org/Graphics/SVG/1.1/DTD/svg11.dtd">
<svg version="1.1" id="Layer_1" xmlns="http://www.w3.org/2000/svg" xmlns:xlink="http://www.w3.org/1999/xlink" x="0px" y="0px"
	 width="526.736px" height="526.773px" viewBox="0 0 526.736 526.773" enable-background="new 0 0 526.736 526.773"
	 xml:space="preserve">
<g id="Grid">
	<polyline fill="#00A8E5" fill-opacity="0" points="7.728,7.531 519.163,518.966 519.29,518.838 7.856,7.402 	"/>
	<polyline fill="#00A8E5" fill-opacity="0" points="519.162,7.402 7.728,518.836 7.856,518.966 519.29,7.531 	"/>
	<polyline fill="#00A8E5" fill-opacity="0" points="0.135,31.883 527.154,31.883 527.154,31.701 0.135,31.701 	"/>
	<polyline fill="#00A8E5" fill-opacity="0" points="0.288,263.275 526.736,263.275 526.736,263.092 0.288,263.092 	"/>
	<polyline fill="#00A8E5" fill-opacity="0" points="0.148,361.115 526.886,361.115 526.886,360.934 0.148,360.934 	"/>
	<polyline fill="#00A8E5" fill-opacity="0" points="0.161,165.434 526.886,165.434 526.886,165.253 0.161,165.253 	"/>
	<polyline fill="#00A8E5" fill-opacity="0" points="31.996,-0.325 31.996,526.693 32.177,526.693 32.177,-0.325 	"/>
	<polyline fill="#00A8E5" fill-opacity="0" points="165.58,-0.05 165.576,526.674 165.757,526.674 165.762,-0.05 	"/>
	<polyline fill="#00A8E5" fill-opacity="0" points="263.419,0 263.419,526.405 263.599,526.405 263.599,0 	"/>
	<polyline fill="#00A8E5" fill-opacity="0" points="494.869,-0.247 494.869,526.773 495.053,526.773 495.053,-0.247 	"/>
	<polyline fill="#00A8E5" fill-opacity="0" points="0,494.697 527.017,494.697 527.017,494.515 0,494.515 	"/>
	<polyline fill="#00A8E5" fill-opacity="0" points="361.222,-0.153 361.222,526.579 361.403,526.579 361.403,-0.153 	"/>
	<g opacity="0">
		<path fill="#00A8E5" d="M361.362,263.184h-0.093c0,26.996-10.942,51.436-28.633,69.127
			c-17.692,17.692-42.131,28.633-69.127,28.633s-51.436-10.942-69.127-28.633c-17.692-17.692-28.633-42.131-28.633-69.127
			s10.942-51.436,28.633-69.128c17.692-17.691,42.13-28.633,69.127-28.633c26.996,0,51.436,10.942,69.127,28.633
			c17.692,17.692,28.633,42.131,28.633,69.128L361.362,263.184l0.093,0c0-54.095-43.852-97.946-97.947-97.946
			s-97.946,43.851-97.946,97.946c0,54.096,43.852,97.947,97.946,97.947s97.947-43.851,97.947-97.947L361.362,263.184
			L361.362,263.184z"/>
	</g>
	<g opacity="0">
		<path fill="#00A8E5" d="M494.855,263.184h-0.092c0,63.859-25.883,121.671-67.733,163.52
			c-41.851,41.849-99.661,67.733-163.521,67.733s-121.674-25.884-163.523-67.733c-41.848-41.849-67.733-99.662-67.733-163.52
			c0-63.86,25.885-121.674,67.733-163.522c41.849-41.849,99.662-67.733,163.523-67.733c63.86,0,121.671,25.884,163.521,67.733
			c41.849,41.848,67.733,99.662,67.733,163.522L494.855,263.184l0.091,0c0-127.819-103.617-231.436-231.437-231.436
			c-127.819,0-231.436,103.617-231.436,231.436c0,127.818,103.617,231.436,231.436,231.436s231.437-103.617,231.437-231.436
			L494.855,263.184L494.855,263.184z"/>
		<path fill="#00A8E5" d="M401.842,263.184h-0.092c0,38.175-15.473,72.736-40.489,97.753
			c-25.019,25.016-59.578,40.489-97.752,40.489c-38.176,0-72.735-15.473-97.753-40.489c-25.016-25.016-40.49-59.578-40.49-97.753
			s15.474-72.734,40.49-97.752c25.018-25.017,59.577-40.49,97.753-40.49c38.174,0,72.734,15.473,97.752,40.49
			c25.016,25.018,40.489,59.577,40.489,97.752L401.842,263.184l0.09,0c0-76.448-61.974-138.424-138.423-138.424
			c-76.45,0-138.423,61.976-138.423,138.424s61.973,138.423,138.423,138.423c76.449,0,138.423-61.975,138.423-138.423
			L401.842,263.184L401.842,263.184z"/>
	</g>
	<g opacity="0">
		<path fill="#00A8E5" d="M526.731,418.134h-0.155c0,29.732-12.163,56.761-31.759,76.358
			c-19.597,19.596-46.626,31.759-76.358,31.759h-309.9c-29.732,0-56.761-12.163-76.357-31.759
			c-19.597-19.597-31.76-46.626-31.76-76.358v-309.9c0-29.732,12.163-56.761,31.76-76.357c19.597-19.597,46.625-31.76,76.357-31.76
			h309.9c29.732,0,56.761,12.163,76.358,31.76c19.596,19.597,31.759,46.625,31.759,76.357v309.9L526.731,418.134l0.155,0v-309.9
			C526.885,48.598,478.094-0.192,418.459-0.193l0,0h-309.9l0,0C48.924-0.192,0.133,48.598,0.132,108.234l0,0v309.9l0,0
			c0.001,59.635,48.791,108.426,108.427,108.427h309.9c59.635-0.001,108.426-48.791,108.427-108.427L526.731,418.134
			L526.731,418.134z"/>
	</g>
</g>
<g id="logo">
	<g>
		<path fill="#00A8E5" d="M444.506,93.019h-35.355V77.328c0-10.511-8.6-19.111-19.111-19.111h-14.128
			c-10.511,0-19.111,8.6-19.111,19.111v15.691h-189.4V75.918c0-10.511-8.6-19.111-19.111-19.111h-14.128
			c-10.511,0-19.111,8.6-19.111,19.111v17.101H82.783c-10.511,0-19.111,8.6-19.111,19.111v45.866h399.944V112.13
			C463.617,101.619,455.017,93.019,444.506,93.019z"/>
		<path fill="#00A8E5" d="M63.672,452.888c0,10.511,8.6,19.111,19.111,19.111h361.723c10.511,0,19.111-8.6,19.111-19.111V179.017
			H63.672V452.888z M373.531,247.816h53.51v53.51h-53.51V247.816z M373.531,315.659h53.51v53.51h-53.51V315.659z M373.531,383.502
			h53.51v53.51h-53.51V383.502z M306.644,247.816h53.51v53.51h-53.51V247.816z M306.644,315.659h53.51v53.51h-53.51V315.659z
			 M306.644,383.502h53.51v53.51h-53.51V383.502z M236.89,247.816h53.51v53.51h-53.51V247.816z M236.89,315.659h53.51v53.51h-53.51
			V315.659z M236.89,383.502h53.51v53.51h-53.51V383.502z M167.401,247.816h53.51v53.51h-53.51V247.816z M167.401,315.659h53.51
			v53.51h-53.51V315.659z M167.401,383.502h53.51v53.51h-53.51V383.502z M98.602,247.816h53.51v53.51h-53.51
			C98.602,301.326,98.602,247.816,98.602,247.816z M98.602,315.659h53.51v53.51h-53.51
			C98.602,369.169,98.602,315.659,98.602,315.659z M98.602,383.502h53.51v53.51h-53.51
			C98.602,437.012,98.602,383.502,98.602,383.502z"/>
	</g>
</g>
</svg>