<?xml version="1.0" encoding="utf-8"?>
<!-- Generator: Adobe Illustrator 17.1.0, SVG Export Plug-In . SVG Version: 6.00 Build 0)  -->
<!DOCTYPE svg PUBLIC "-//W3C//DTD SVG 1.1//EN" "http://www.w3.org/Graphics/SVG/1.1/DTD/svg11.dtd">
<svg version="1.1" id="Layer_1" xmlns="http://www.w3.org/2000/svg" xmlns:xlink="http://www.w3.org/1999/xlink" x="0px" y="0px"
	 width="472.3px" height="88.7px" viewBox="0 0 472.3 88.7" style="enable-background:new 0 0 472.3 88.7;" xml:space="preserve">
<style type="text/css">
	.st0{fill:#FFFFFF;stroke:#FFFFFF;stroke-miterlimit:10;}
	.st1{fill:#00a8e5;}
	.st2{fill:#FFFFFF;}
</style>
<path class="st0" d="M2.3,85.6H20V58.3c0-1.8,0.3-3.4,1-4.6c0.6-1.3,1.5-2.2,2.6-2.9c1.1-0.7,2.4-1,3.8-1s2.6,0.3,3.7,1
	s1.9,1.6,2.5,2.9s0.9,2.8,0.9,4.6v27.3h17.7v-33c0-3.8-0.7-7.1-2.1-9.9s-3.3-4.9-5.9-6.4S38.6,34,35,34c-2.4,0-4.5,0.4-6.4,1.2
	c-1.9,0.8-3.5,1.8-4.9,3s-2.7,2.6-3.8,4v-7.1H2.2L2.3,85.6L2.3,85.6z"/>
<path class="st0" d="M80,86.8c3.4,0,6.4-0.4,9.1-1.3s5.1-2,7.2-3.6c2.1-1.5,4-3.3,5.6-5.4l-9.8-8.1c-1.8,1.8-3.6,3.1-5.4,3.9
	s-3.7,1.2-5.8,1.2c-0.8,0-1.7-0.1-2.4-0.2v13.4C79,86.8,79.5,86.8,80,86.8L80,86.8z M78.5,65.3h25.3c0-0.6,0.1-1.2,0.1-1.8
	c0-0.6,0-1.2,0-1.8c0-3-0.3-5.8-1-8.6c-0.7-2.7-1.6-5.3-3-7.6c-1.3-2.3-3-4.3-5-6s-4.4-3-7.1-4c-2.7-0.9-5.8-1.4-9.2-1.4v13
	c1.6,0,3,0.4,4.3,1.1c1.2,0.7,2.2,1.8,3,3.2c0.9,1.2,1.4,2.9,1.5,4.8h-8.8L78.5,65.3L78.5,65.3z M78.5,73.4
	c-1.7-0.3-3.3-0.9-4.6-1.9C72,70.1,70.7,68,70,65.3h8.5v-9h-8.8c0.3-1.8,0.9-3.4,1.6-4.8c0.8-1.4,1.8-2.4,3-3.2
	c1.2-0.8,2.6-1.1,4.1-1.1l0,0v-13h-0.1c-3.7,0-7.2,0.7-10.3,2.1c-3.1,1.4-5.8,3.2-8,5.6c-2.3,2.4-4,5.2-5.2,8.4
	c-1.2,3.2-1.9,6.6-1.9,10.3v0.2c0,3.9,0.7,7.5,2,10.7s3.2,5.9,5.6,8.3c2.4,2.3,5.3,4.1,8.5,5.3c2.9,1.1,6,1.7,9.4,1.9L78.5,73.4
	L78.5,73.4z"/>
<polygon class="st0" points="97,85.6 115.6,85.6 123.5,72.6 131.4,85.6 150.4,85.6 133.4,60 150,35.2 131.3,35.2 123.8,47.6 
	116.4,35.2 97.3,35.2 113.9,60.1 "/>
<path class="st0" d="M168.9,86.6c2.5,0,4.8-0.3,6.8-0.8c2.1-0.5,3.9-1.2,5.5-2.1V69.8c-1.1,0.5-2.2,0.9-3.3,1.2
	c-1.1,0.3-2.3,0.4-3.4,0.4c-1.6,0-2.8-0.4-3.7-1.2c-0.8-0.8-1.2-2.1-1.2-3.8V49.3h11.7V35h-11.7V22.2h-17.7V35l-9.3,13.4l9.3,0.9
	v20.5c0,4,0.7,7.2,2,9.7c1.4,2.5,3.3,4.3,5.8,5.4C162.3,86.1,165.3,86.6,168.9,86.6z"/>
<path class="st0" d="M207.6,86.7c3,0,5.7-0.4,8-1.2c2.3-0.8,4.5-1.9,6.4-3.3s3.7-3,5.2-4.8l-4.6-4.3c-1.3,1.4-2.7,2.6-4.1,3.7
	c-1.5,1.1-3.1,1.9-4.9,2.5c-1.8,0.6-3.7,0.9-5.7,1c-2.5,0-4.9-0.5-7-1.5c-2.1-0.9-4-2.3-5.6-4s-2.8-3.7-3.7-5.9
	c-0.9-2.3-1.3-4.7-1.4-7.3v-0.2c0-2.6,0.4-5,1.3-7.3c0.9-2.2,2.1-4.2,3.6-5.9c1.6-1.7,3.4-3,5.5-4s4.4-1.4,6.8-1.5
	c2.2,0,4.1,0.3,5.8,1s3.3,1.5,4.8,2.6c1.4,1.1,2.8,2.3,4,3.7l4.8-5c-1.5-1.6-3.1-3-5-4.3c-1.8-1.3-3.9-2.3-6.3-3.1
	c-2.3-0.8-5-1.1-8.1-1.2c-3.5,0-6.8,0.7-9.8,2s-5.6,3.1-7.8,5.5c-2.2,2.3-3.9,5-5.2,8c-1.2,3-1.9,6.2-1.9,9.7v0.2
	c0,3.4,0.7,6.6,1.9,9.6s3,5.7,5.2,8s4.8,4.1,7.8,5.4C200.8,86,204,86.7,207.6,86.7z"/>
<path class="st0" d="M249.8,86.4c1.5-0.2,2.9-0.5,4.2-1c2.2-0.8,4.1-1.8,5.7-3c1.6-1.2,3-2.6,4.1-4v7.2h7.1V56.1
	c0-3.1-0.4-5.8-1.3-8.1c-0.8-2.3-2.1-4.4-3.8-6c-1.7-1.7-3.9-3-6.5-3.9s-5.6-1.4-9-1.4c-0.2,0-0.3,0-0.5,0v6.5
	c2.9,0,5.4,0.5,7.4,1.5c2.1,1,3.7,2.4,4.8,4.4c1.1,1.9,1.7,4.3,1.7,7.2v1.5c-1.4-0.4-2.9-0.8-4.4-1.1c-1.5-0.3-3.1-0.5-4.8-0.7
	c-1.5-0.1-3.1-0.2-4.9-0.3v5.7l0,0c2.9,0,5.6,0.2,7.9,0.6c2.3,0.4,4.4,0.9,6.2,1.4v4.5c0,1.9-0.4,3.7-1.3,5.3c-0.8,1.6-2,3-3.4,4.1
	c-1.5,1.1-3.2,2-5.1,2.7c-1.4,0.4-2.8,0.7-4.3,0.9v5.5H249.8z M246.5,86.6c1.2,0,2.3-0.1,3.4-0.2v-5.6c-0.6,0.1-1.3,0.1-2,0.1
	c-1.6,0-3.2-0.2-4.6-0.7c-1.5-0.4-2.7-1.1-3.9-1.9c-1.1-0.8-2-1.8-2.6-3s-1-2.5-1-4.1V71c0-1.9,0.6-3.6,1.7-5.1
	c1.1-1.4,2.7-2.6,4.8-3.4s4.6-1.2,7.6-1.2v-5.7c-0.2,0-0.5,0-0.7,0c-3.1,0-5.9,0.3-8.4,1s-4.7,1.7-6.5,3s-3.2,3-4.2,4.9
	c-1,2-1.5,4.2-1.5,6.8v0.2c0,2.5,0.5,4.6,1.5,6.5s2.4,3.4,4.1,4.7c1.7,1.3,3.6,2.2,5.8,2.8C242,86.3,244.2,86.6,246.5,86.6
	L246.5,86.6z M249.8,36.7c-2.2,0-4.2,0.2-6,0.5c-2,0.3-3.9,0.8-5.7,1.4s-3.6,1.3-5.3,2.1l2.1,5.9c2.2-1,4.5-1.9,6.9-2.5s5-0.9,7.8-1
	h0.3L249.8,36.7L249.8,36.7z"/>
<rect x="279.8" y="17.5" class="st0" width="7.2" height="68"/>
<rect x="297.4" y="17.5" class="st0" width="7.2" height="68"/>
<path class="st0" d="M334.1,64.4h22.7c0-0.6,0.1-1,0.1-1.4s0-0.8,0-1.1c0-3.6-0.5-6.9-1.5-10s-2.5-5.8-4.4-8.1
	c-1.9-2.3-4.3-4.1-7-5.5c-2.8-1.3-6-2-9.5-2h-0.3v6.1h0.1c2.4,0,4.5,0.4,6.3,1.3s3.4,2,4.6,3.5c1.3,1.5,2.3,3.2,3,5.2
	c0.7,1.9,1.2,4,1.4,6.2h-15.5L334.1,64.4L334.1,64.4z M334.1,86.7c0.4,0,0.8,0,1.3,0c3,0,5.7-0.4,8.1-1.1c2.4-0.7,4.5-1.8,6.5-3.1
	c1.9-1.4,3.7-2.9,5.3-4.8l-4.5-4c-1.3,1.4-2.7,2.6-4.2,3.6s-3.2,1.8-5,2.4s-3.8,0.9-6,0.9c-0.5,0-1,0-1.4-0.1L334.1,86.7L334.1,86.7
	z M318.6,64.4h15.5v-5.8h-15.5c0.3-2.3,0.8-4.5,1.7-6.5s2-3.7,3.4-5.1c1.4-1.5,3-2.6,4.8-3.4c1.7-0.8,3.6-1.2,5.7-1.2v-6.1
	c-3.2,0.1-6.2,0.7-8.9,2c-2.8,1.3-5.3,3.1-7.3,5.4c-2.1,2.3-3.7,5-4.8,8s-1.7,6.3-1.7,9.8c0,3.8,0.7,7.2,1.9,10.3
	c1.2,3.1,3,5.7,5.2,7.9c2.2,2.2,4.7,3.9,7.6,5.1c2.5,1,5.2,1.6,8.1,1.8v-6.3c-1.6-0.1-3.2-0.5-4.6-1c-1.9-0.7-3.7-1.8-5.2-3.1
	c-1.5-1.4-2.8-3-3.8-5C319.5,69.2,318.8,67,318.6,64.4z"/>
<path class="st0" d="M362.5,85.6h7.2V66.4c0-3.6,0.5-6.8,1.5-9.6c1-2.7,2.3-5.1,4.1-6.9c1.7-1.8,3.8-3.2,6.1-4.2
	c2.3-0.9,4.8-1.4,7.4-1.4h0.6v-7.7c-3.1-0.1-5.8,0.4-8.4,1.5c-2.5,1.1-4.7,2.7-6.6,4.8c-1.9,2.1-3.5,4.4-4.6,7.1V37.4h-7.2
	L362.5,85.6L362.5,85.6z"/>
<path class="st1" d="M457.1,1.8c-14.7,0-29.4,0-44,0c-6.1,0-12.6,5.7-12.6,12c0,8.2,0,16.5,0,24.7c0,5.7,3.8,8.3,8,11.7
	c-1.9,2.6-4,5.7-5.8,8.5c-3.6,5.5,2.8,11.7,7.7,8.3c7.4-5.1,14.9-10.2,22.3-15.2c8.3-0.1,16.7-0.2,25.1-0.3
	c6.2-0.1,12.7-6,12.7-12.4c0-8.3,0-16.6,0-24.9C470.3,7,463.8,1.8,457.1,1.8z"/>
<path class="st2" d="M450.8,30.1h-10.2l5.1,8.8c0.8,1.4,0.3,3.2-1.1,4c-1.4,0.8-3.2,0.3-4-1.1l-5.1-8.8l-5.1,8.8
	c-0.8,1.4-2.6,1.9-4,1.1s-1.9-2.6-1.1-4l5.1-8.8h-10.2c-1.6,0-2.9-1.3-2.9-2.9s1.3-2.9,2.9-2.9h10.2l-5.1-8.8
	c-0.8-1.4-0.3-3.2,1.1-4c1.4-0.8,3.2-0.3,4,1.1l5.1,8.8l5.1-8.8c0.8-1.4,2.6-1.9,4-1.1s1.9,2.6,1.1,4l-5.1,8.8h10.2
	c1.6,0,2.9,1.3,2.9,2.9C453.8,28.7,452.5,30.1,450.8,30.1z"/>
</svg>
