<svg version="1.1" class="back-button-arrow" xmlns="http://www.w3.org/2000/svg" x="0px" y="0px" viewBox="0 0 27.8 30.3" enable-background="new 0 0 27.8 30.3" xml:space="preserve">
<path fill-rule="evenodd" clip-rule="evenodd" fill="#1E98D5" d="M17.7,5L7.2,15.5L17.7,26c0.8,0.8,0.8,2.1,0,2.9
    c-0.8,0.8-2.1,0.8-2.9,0L2.9,17c-0.4-0.4-0.6-0.9-0.6-1.5c0-0.5,0.2-1.1,0.6-1.5L14.9,2.1c0.8-0.8,2.1-0.8,2.9,0
    C18.5,2.9,18.5,4.2,17.7,5z"></path>
<path fill-rule="evenodd" clip-rule="evenodd" fill="#1E98D5" d="M9.3,13.5l14.9,0c1.1,0,2,0.9,2,2c0,1.1-0.9,2-2,2l-16.9,0
    c-0.6,0-1.1-0.2-1.5-0.6c-0.4-0.4-0.6-0.9-0.6-1.5"></path>
</svg>