<svg version="1.1" id="Layer_1" xmlns="http://www.w3.org/2000/svg" x="0px" y="0px"
     viewBox="0 0 41.6 38.5" style="enable-background:new 0 0 41.6 38.5;" xml:space="preserve">
<path fill="#676767" style="fill-rule:evenodd;clip-rule:evenodd;" d="M12.3,20.6c-0.1,0.1-0.2,0.2-0.3,0.3C12,21.1,12,21.2,12,21.4
    c0,0.3,0.1,0.5,0.3,0.6c0.2,0.2,0.2,0.3,0.6,0.4v-2.1c-0.1,0-0.1,0-0.2,0.1C12.5,20.5,12.4,20.5,12.3,20.6z M24.8,16.2
    c1.2,1.8,1.9,3.8,2.2,6h10.6c0.8,0,1.5-0.7,1.5-1.5v-3c0-0.8-0.7-1.5-1.5-1.5H24.8z M23.6,14.7H36c0.8,0,1.5-0.7,1.5-1.5v-3
    c0-0.8-0.7-1.5-1.5-1.5H15c-0.8,0-1.5,0.7-1.5,1.5C17.5,10.2,21.1,11.9,23.6,14.7z M14,24.4v2.4c0.1,0,0.1,0,0.2-0.1
    c0.2-0.1,0.3-0.1,0.4-0.2c0.1-0.1,0.2-0.2,0.3-0.4c0.1-0.1,0.1-0.3,0.1-0.5c0-0.3-0.1-0.6-0.3-0.7C14.7,24.8,14.5,24.6,14,24.4z
     M37.5,31.2H24.8c-2,3-5.2,5.2-8.9,5.8c0.2,0.1,0.4,0.2,0.7,0.2h21c0.8,0,1.5-0.7,1.5-1.5v-3C39,31.9,38.3,31.2,37.5,31.2z M39,23.7
    H27c0,2.2-0.5,4.2-1.4,6H39c0.8,0,1.5-0.7,1.5-1.5v-3C40.5,24.4,39.8,23.7,39,23.7z M25.5,23.7c0-6.6-5.4-12-12-12
    c-6.6,0-12,5.4-12,12c0,6.6,5.4,12,12,12C20.2,35.7,25.5,30.3,25.5,23.7z M13.5,34.2C7.7,34.2,3,29.5,3,23.7
    c0-5.8,4.7-10.5,10.5-10.5S24,17.9,24,23.7C24,29.5,19.3,34.2,13.5,34.2z M39,1.2H18c-0.8,0-1.5,0.7-1.5,1.5v3
    c0,0.8,0.7,1.5,1.5,1.5h21c0.8,0,1.5-0.7,1.5-1.5v-3C40.5,1.9,39.8,1.2,39,1.2z M13.5,14.7c-5,0-9,4-9,9c0,5,4,9,9,9c5,0,9-4,9-9
    C22.5,18.7,18.5,14.7,13.5,14.7z M16.8,26.4c-0.1,0.3-0.3,0.6-0.5,0.8c-0.2,0.3-0.6,0.5-1,0.7c-0.4,0.2-0.7,0.3-1.3,0.4v1.1l-1.2,0
    v-1.1c-0.9-0.1-1.4-0.4-2-0.9c-0.5-0.5-0.8-1.3-0.9-2.3h1.8c0,0.5,0.1,0.9,0.4,1.1c0.3,0.3,0.4,0.5,0.7,0.5v-2.7c0,0,0-0.1,0-0.1
    c-0.1,0-0.1,0-0.1,0c-0.3-0.1-0.6-0.2-0.9-0.3c-0.3-0.1-0.6-0.3-0.8-0.5c-0.2-0.2-0.4-0.4-0.6-0.7c-0.1-0.3-0.2-0.6-0.2-1.1
    c0-0.4,0.1-0.8,0.2-1.1c0.2-0.3,0.4-0.6,0.6-0.8c0.3-0.2,0.6-0.4,0.9-0.5c0.3-0.1,0.5-0.2,0.9-0.2v-1H14v1c0.4,0,0.5,0.1,0.9,0.2
    c0.3,0.1,0.6,0.3,0.9,0.5c0.2,0.2,0.5,0.5,0.6,0.8c0.2,0.3,0.2,0.7,0.3,1.1h-1.8c0-0.3-0.1-0.6-0.2-0.8c-0.1-0.2-0.3-0.4-0.6-0.4
    v2.3c0.1,0,0,0,0.1,0.1c0.1,0,0.2,0.1,0.3,0.1c0.6,0.2,1.1,0.4,1.4,0.6c0.3,0.3,0.6,0.5,0.7,0.8c0.2,0.3,0.3,0.5,0.3,0.8
    c0,0.3,0,0.5,0,0.7C16.9,25.9,16.9,26.2,16.8,26.4z"/>
</svg>