<svg version="1.1" id="Layer_1" xmlns="http://www.w3.org/2000/svg" x="0px" y="0px"
     width="87.5px" height="92.3px" viewBox="0 0 87.5 92.3" style="enable-background:new 0 0 87.5 92.3;" xml:space="preserve">
<path fill="#676767" class="st0"
      d="M40.8,3.5V9C20,10.5,3.6,27.8,3.6,48.8l0,0c0,22.1,17.9,40,40,40l0,0c22.1,0,40-17.9,40-40l0,0
    c0-10.5-4.1-20-10.7-27.1l0,0l5.6-5.6L71,8.8l-6.3,6.4c-5.4-3.4-11.6-5.7-18.4-6.1l0,0V3.6L40.8,3.5L40.8,3.5z M14.1,48.9
    c0-16.2,13.2-29.3,29.4-29.3l0,0c16.2,0,29.4,13.1,29.4,29.3l0,0c0,16.2-13.2,29.4-29.4,29.4l0,0C27.3,78.3,14.1,65.3,14.1,48.9
     M40.9,27.6v13.8c-3.1,1.1-5.4,4-5.4,7.5l0,0c0,3.5,2.2,6.3,5.4,7.5l0,0v8.3c0,1.5,1.2,2.7,2.7,2.7l0,0c1.5,0,2.7-1.2,2.7-2.7l0,0
    v-8.4c3-1.1,5.3-4,5.3-7.4l0,0c0-3.5-2.2-6.4-5.3-7.5l0,0V27.5c0-1.5-1.2-2.7-2.7-2.7l0,0C42.1,24.8,40.9,26.1,40.9,27.6L40.9,27.6z
    "/>
</svg>