<svg version="1.1" id="Layer_1" xmlns="http://www.w3.org/2000/svg" x="0px" y="0px"
     viewBox="0 0 183.3 117" enable-background="new 0 0 183.3 117" xml:space="preserve">
<path fill-rule="evenodd" clip-rule="evenodd" fill="#1E98D5" d="M178.6,102.4c0,2.5-1,4.6-2.4,6.4l-57.9-44.2l60-45.8
    c0.1,1.7,0,3.5-0.1,5.5c-0.1,1.9,0.1,3,0.3,3.7V102.4z M82.9,67.3L7.3,9.5c1.6-2.4,4.3-4,8.4-4.6h151.8c4.4,0.6,7.1,2.2,8.7,4.7
    l-75.5,57.7C95.8,71.1,87.8,71.1,82.9,67.3z M7.6,108.7c-1.3-1.8-2.2-3.9-2.2-6.2V18.9l59.8,45.7L7.6,108.7z M82.9,78.1
    c4.9,3.7,12.9,3.7,17.8,0l10.6-8.1l56.1,42.9H16.2L72.3,70L82.9,78.1z"/>
</svg>