<svg class="primary-link-icon phone-fraud-icon" version="1.1" id="Layer_1" xmlns="http://www.w3.org/2000/svg" x="0px" y="0px"
     viewBox="0 0 35.2 34.2" style="enable-background:new 0 0 35.2 34.2;" xml:space="preserve">
<path fill="#676767" d="M25.6,5.1l-3.4-3.4l-3.8,3.8l3.4,3.4l-3.4,3.4l3.8,3.8l3.4-3.4l3.4,3.4l3.8-3.8l-3.4-3.4l3.4-3.4
    L29,1.7L25.6,5.1z M3.9,2.9C2.8,3.9-1,9.4,5.8,19l0,0c0.6,1,2,2.7,4.5,5.2l0,0l0,0l0,0l0,0l0,0c0,0,0,0,0,0l0,0l0,0l0,0
    c2.5,2.5,4.2,3.9,5.2,4.5l0,0c9.5,6.9,15,3,16.1,2l0,0c1.2-1.2,1.4-5,0.8-5l0,0c-0.6,0-7.9-3.4-8.6-3.4l0,0c-0.6,0-2.9,2.2-3.5,2.9
    l0,0c-0.6,0.6-6.3-4.4-6.4-4.5l0,0c-0.1-0.1-5.1-5.8-4.5-6.4l0,0c0.6-0.6,2.9-2.9,2.8-3.5l0,0c0-0.7-3.4-7.9-3.4-8.6l0,0
    c0-0.2-0.5-0.4-1.2-0.4l0,0C6.4,1.7,4.7,2.1,3.9,2.9L3.9,2.9z"/>
</svg>