<svg version="1.1" id="Layer_1" xmlns="http://www.w3.org/2000/svg" x="0px" y="0px" viewBox="0 0 132 133" enable-background="new 0 0 132 133" xml:space="preserve">
<path fill="#C7E0A0" d="M11.2,7.2C6.9,11.6-9,34.3,19.3,73.8l0,0c2.4,4.3,8.1,11.1,18.5,21.5l0,0l0,0h0.1v0.1l0,0
    c10.3,10.4,17.1,16.1,21.5,18.6l0,0c39.2,28.4,61.7,12.5,66,8.2l0,0c5.2-5.1,6.1-20.6,3.3-20.7l0,0c-2.7-0.2-32.6-13.9-35.3-14.1
    l0,0c-2.7-0.1-11.9,9.1-14.6,11.9l0,0c-2.7,2.7-26-18.1-26.5-18.5l0,0c-0.4-0.5-21-24-18.4-26.6l0,0c2.7-2.7,11.9-11.9,11.7-14.6
    l0,0c0-2.7-13.9-32.7-14-35.5l0,0c0-1-2.1-1.5-5-1.5l0,0C21.8,2.5,14.4,4,11.2,7.2L11.2,7.2z"></path>
</svg>