<svg version="1.1" id="Layer_1" xmlns="http://www.w3.org/2000/svg" x="0px" y="0px"
     viewBox="0 0 145.5 137.7" enable-background="new 0 0 145.5 137.7" xml:space="preserve">
<path fill="#676767" d="M45,32c-1.4,5-2.1,10.5-2,16l0,0c-2.6,0.4-4.8,2.4-4.2,9.1l0,0c0.7,7,3.4,7.6,6.3,9l0,0
    c2.2,11.6,5.4,17.8,6.8,19.6l0,0c1.5,2.1,2.9,4,3.1,6.5l0,0c-0.7,0.4-1.4,1-1.9,2.3l0,0c-1.5,3.3-3.1,5.2-7.1,6.1l0,0
    c-4,0.8-11.9,4-20.4,6.8l0,0C17,110.2,5,114,5,118.2l0,0c0,2.5-0.2,7.4-0.3,11.3l0,0c1,3.2,3.9,4.1,8.5,4.2l0,0h119.6
    c4.5-0.2,7.5-1,8.6-4.2l0,0c-0.2-3.9-0.4-8.8-0.4-11.3l0,0c0-4.2-11.9-7.9-20.4-10.6l0,0c-8.5-2.8-16.4-5.9-20.5-6.8l0,0
    c-4-0.9-5.7-2.8-7-6.1l0,0c-0.6-1.3-1.4-2-2.1-2.4l0,0c0.3-2.5,1.5-4.3,3.1-6.4l0,0c1.4-1.9,4.4-8.1,6.8-19.6l0,0
    c2.9-1.5,5.7-2,6.4-9.1l0,0c0.6-6.8-1.7-8.7-4.3-9.1l0,0c0.4-18.3-7.2-35.7-25.5-37l0,0l0,0C66.3,9.9,61,5.5,61,5.5l0,0
    c-2.4,3.4-2.7,7.6-2.8,8.3 M58.2,13.8c0,0.1,0,0.1-0.1,0.1c-0.1,0-0.1,0-0.3,0l0,0c-3.6-0.4-3.4-3.1-3.4-3.1l0,0
    C52.1,12.9,47.2,21.3,45,32"/>
</svg>