<?xml version="1.0" encoding="UTF-8" standalone="no"?>
<!-- Generator: Adobe Illustrator 15.1.0, SVG Export Plug-In . SVG Version: 6.00 Build 0)  -->

<svg
   xmlns:dc="http://purl.org/dc/elements/1.1/"
   xmlns:cc="http://creativecommons.org/ns#"
   xmlns:rdf="http://www.w3.org/1999/02/22-rdf-syntax-ns#"
   xmlns:svg="http://www.w3.org/2000/svg"
   xmlns="http://www.w3.org/2000/svg"
   xmlns:sodipodi="http://sodipodi.sourceforge.net/DTD/sodipodi-0.dtd"
   xmlns:inkscape="http://www.inkscape.org/namespaces/inkscape"
   version="1.1"
   id="Layer_1"
   x="0px"
   y="0px"
   width="460"
   height="40"
   viewBox="0 0 460 40"
   enable-background="new 0 0 800 600"
   xml:space="preserve"
   inkscape:version="0.48.4 r9939"
   sodipodi:docname="credit_cards.svg"><metadata
     id="metadata199"><rdf:RDF><cc:Work
         rdf:about=""><dc:format>image/svg+xml</dc:format><dc:type
           rdf:resource="http://purl.org/dc/dcmitype/StillImage" /><dc:title></dc:title></cc:Work></rdf:RDF></metadata><defs
     id="defs197" /><sodipodi:namedview
     pagecolor="#ffffff"
     bordercolor="#666666"
     borderopacity="1"
     objecttolerance="10"
     gridtolerance="10"
     guidetolerance="10"
     inkscape:pageopacity="0"
     inkscape:pageshadow="2"
     inkscape:window-width="1867"
     inkscape:window-height="1056"
     id="namedview195"
     showgrid="false"
     fit-margin-top="0"
     fit-margin-left="0"
     fit-margin-right="0"
     fit-margin-bottom="0"
     inkscape:zoom="2.0647518"
     inkscape:cx="228.71321"
     inkscape:cy="-27.714386"
     inkscape:window-x="53"
     inkscape:window-y="24"
     inkscape:window-maximized="1"
     inkscape:current-layer="g5" /><g
     id="g5"
     transform="translate(-129.75,-280)"><g
       id="g7"><g
         id="g9"><g
           id="g11"><path
             d="m 349.75,315 c 0,2.75 -2.25,5 -5,5 h -50 c -2.75,0 -5,-2.25 -5,-5 v -30 c 0,-2.75 2.25,-5 5,-5 h 50 c 2.75,0 5,2.25 5,5 v 30 z"
             id="path13"
             inkscape:connector-curvature="0"
             style="fill:#5ec1ec" /><path
             d="m 348.281,281.469 c 0.906,0.906 1.469,2.156 1.469,3.531 v 15 15 c 0,1.375 -0.562,2.625 -1.469,3.531 -0.907,0.906 -2.156,1.469 -3.531,1.469 h -25 -25 c -1.375,0 -2.625,-0.562 -3.531,-1.469 l 57.062,-37.062 z"
             id="path15"
             inkscape:connector-curvature="0"
             style="fill:#5bbbe6" /><g
             id="g17"><path
               d="m 307.305,304.922 -0.457,-1.74 h -3.015 l -0.47,1.74 h -2.755 l 3.028,-9.318 h 3.345 l 3.065,9.318 h -2.741 z m -0.977,-3.797 -0.4,-1.523 c -0.094,-0.338 -0.206,-0.775 -0.34,-1.313 -0.133,-0.538 -0.221,-0.923 -0.264,-1.155 -0.037,0.216 -0.113,0.571 -0.225,1.066 -0.112,0.495 -0.361,1.471 -0.746,2.926 l 1.975,-10e-4 0,0 z"
               id="path19"
               inkscape:connector-curvature="0"
               style="fill:#ffffff" /><path
               d="m 315.094,304.922 -1.898,-6.685 h -0.057 c 0.089,1.138 0.133,2.022 0.133,2.654 v 4.03 h -2.221 v -9.281 h 3.338 l 1.937,6.59 h 0.051 l 1.897,-6.59 h 3.346 v 9.281 h -2.305 v -4.069 c 0,-0.211 0.004,-0.445 0.01,-0.704 0.006,-0.259 0.035,-0.891 0.086,-1.898 h -0.057 l -1.873,6.672 h -2.387 z"
               id="path21"
               inkscape:connector-curvature="0"
               style="fill:#ffffff" /><path
               d="m 328.869,304.922 h -5.51 v -9.281 h 5.51 v 2.013 h -3.004 v 1.46 h 2.781 v 2.012 h -2.781 v 1.752 h 3.004 v 2.044 z"
               id="path23"
               inkscape:connector-curvature="0"
               style="fill:#ffffff" /><path
               d="m 338.854,304.922 h -2.9 l -1.811,-2.9 -1.789,2.9 h -2.838 l 3.078,-4.748 -2.895,-4.533 h 2.781 l 1.676,2.869 1.611,-2.869 h 2.863 l -2.939,4.729 3.163,4.552 z"
               id="path25"
               inkscape:connector-curvature="0"
               style="fill:#ffffff" /></g><g
             id="g27"><path
               d="m 307.305,304.922 -0.457,-1.74 h -3.015 l -0.47,1.74 h -2.755 l 3.028,-9.318 h 3.345 l 3.065,9.318 h -2.741 z m -0.977,-3.797 -0.4,-1.523 c -0.094,-0.338 -0.206,-0.775 -0.34,-1.313 -0.133,-0.538 -0.221,-0.923 -0.264,-1.155 -0.037,0.216 -0.113,0.571 -0.225,1.066 -0.112,0.495 -0.361,1.471 -0.746,2.926 l 1.975,-10e-4 0,0 z"
               id="path29"
               inkscape:connector-curvature="0"
               style="fill:#ffffff" /><path
               d="m 315.094,304.922 -1.898,-6.685 h -0.057 c 0.089,1.138 0.133,2.022 0.133,2.654 v 4.03 h -2.221 v -9.281 h 3.338 l 1.937,6.59 h 0.051 l 1.897,-6.59 h 3.346 v 9.281 h -2.305 v -4.069 c 0,-0.211 0.004,-0.445 0.01,-0.704 0.006,-0.259 0.035,-0.891 0.086,-1.898 h -0.057 l -1.873,6.672 h -2.387 z"
               id="path31"
               inkscape:connector-curvature="0"
               style="fill:#ffffff" /><path
               d="m 328.869,304.922 h -5.51 v -9.281 h 5.51 v 2.013 h -3.004 v 1.46 h 2.781 v 2.012 h -2.781 v 1.752 h 3.004 v 2.044 z"
               id="path33"
               inkscape:connector-curvature="0"
               style="fill:#ffffff" /><path
               d="m 338.854,304.922 h -2.9 l -1.811,-2.9 -1.789,2.9 h -2.838 l 3.078,-4.748 -2.895,-4.533 h 2.781 l 1.676,2.869 1.611,-2.869 h 2.863 l -2.939,4.729 3.163,4.552 z"
               id="path35"
               inkscape:connector-curvature="0"
               style="fill:#ffffff" /></g><path
             d="M 319.75,280"
             id="path37"
             inkscape:connector-curvature="0"
             style="fill:#56b1d9" /></g><g
           id="g39"><path
             d="m 344.75,281 c 2.206,0 4,1.794 4,4 v 30 c 0,2.206 -1.794,4 -4,4 h -50 c -2.206,0 -4,-1.794 -4,-4 v -30 c 0,-2.206 1.794,-4 4,-4 h 50 m 0,-1 h -50 c -2.75,0 -5,2.25 -5,5 v 30 c 0,2.75 2.25,5 5,5 h 50 c 2.75,0 5,-2.25 5,-5 v -30 c 0,-2.75 -2.25,-5 -5,-5 l 0,0 z"
             id="path41"
             inkscape:connector-curvature="0"
             style="fill:#9bcee0" /></g></g><g
         id="g43"><path
           d="m 269.75,315 c 0,2.75 -2.25,5 -5,5 h -50 c -2.75,0 -5,-2.25 -5,-5 v -30 c 0,-2.75 2.25,-5 5,-5 h 50 c 2.75,0 5,2.25 5,5 v 30 z"
           id="path45"
           inkscape:connector-curvature="0"
           style="fill:#5565af" /><path
           enable-background="new    "
           d="m 268.281,281.469 c 0.906,0.906 1.469,2.156 1.469,3.531 v 15 15 c 0,1.375 -0.562,2.625 -1.469,3.531 -0.907,0.906 -2.156,1.469 -3.531,1.469 h -25 -25 c -1.375,0 -2.625,-0.562 -3.531,-1.469 l 57.062,-37.062 z"
           id="path47"
           inkscape:connector-curvature="0"
           style="opacity:0.03999999;fill:#ffffff" /><path
           d="M 239.75,280"
           id="path49"
           inkscape:connector-curvature="0"
           style="fill:#56b1d9" /><g
           id="g51"><path
             d="m 239.75,293.4 c -1.833,-2.08 -4.51,-3.4 -7.5,-3.4 -5.522,0 -10,4.477 -10,10 0,5.521 4.478,10 10,10 2.99,0 5.667,-1.32 7.5,-3.401 -1.552,-1.762 -2.5,-4.065 -2.5,-6.599 0,-2.534 0.948,-4.838 2.5,-6.6 z"
             id="path53"
             inkscape:connector-curvature="0"
             style="fill:#ea564b" /><path
             d="m 239.75,293.4 c -1.552,1.762 -2.5,4.067 -2.5,6.6 0,2.533 0.948,4.837 2.5,6.599 1.552,-1.762 2.5,-4.065 2.5,-6.599 0,-2.534 -0.948,-4.838 -2.5,-6.6 z"
             id="path55"
             inkscape:connector-curvature="0"
             style="fill:#ea564b" /></g><path
           d="m 247.25,290 c -2.99,0 -5.667,1.32 -7.5,3.4 -0.433,0.492 -0.812,1.03 -1.144,1.6 h 2.288 c 0.364,0.625 0.647,1.299 0.871,2 h -4.044 c -0.203,0.643 -0.35,1.309 -0.419,2 h 4.879 c 0.034,0.33 0.068,0.66 0.068,1 0,0.338 -0.02,0.671 -0.053,1 h -4.895 c 0.069,0.691 0.216,1.357 0.419,2 h 4.056 c -0.223,0.704 -0.522,1.372 -0.886,2 h -2.285 c 0.331,0.568 0.711,1.107 1.144,1.599 1.833,2.081 4.51,3.401 7.5,3.401 5.522,0 10,-4.479 10,-10 10e-4,-5.523 -4.477,-10 -9.999,-10 z"
           id="path57"
           inkscape:connector-curvature="0"
           style="fill:#e9d419" /><g
           id="g59"><path
             d="m 264.75,281 c 2.206,0 4,1.794 4,4 v 30 c 0,2.206 -1.794,4 -4,4 h -50 c -2.206,0 -4,-1.794 -4,-4 v -30 c 0,-2.206 1.794,-4 4,-4 h 50 m 0,-1 h -50 c -2.75,0 -5,2.25 -5,5 v 30 c 0,2.75 2.25,5 5,5 h 50 c 2.75,0 5,-2.25 5,-5 v -30 c 0,-2.75 -2.25,-5 -5,-5 l 0,0 z"
             id="path61"
             inkscape:connector-curvature="0"
             style="fill:#7684b7" /></g></g><g
         id="g63"><path
           d="m 429.75,315 c 0,2.75 -2.25,5 -5,5 h -50 c -2.75,0 -5,-2.25 -5,-5 v -30 c 0,-2.75 2.25,-5 5,-5 h 50 c 2.75,0 5,2.25 5,5 v 30 z"
           id="path65"
           inkscape:connector-curvature="0"
           style="fill:#f3f4f4" /><g
           id="g67"><path
             d="M 399.75,280"
             id="path69"
             inkscape:connector-curvature="0"
             style="fill:#ffffff" /><g
             id="g71"><path
               d="m 386.75,310 h -8 v -15 c 0,-2.762 3.238,-5 6,-5 h 6 v 15 c 0,2.762 -1.238,5 -4,5 z"
               id="path73"
               inkscape:connector-curvature="0"
               style="fill:#5565af" /><path
               d="m 400.75,310 h -8 v -15 c 0,-2.762 3.238,-5 6,-5 h 6 v 15 c 0,2.762 -1.238,5 -4,5 z"
               id="path75"
               inkscape:connector-curvature="0"
               style="fill:#ea564b" /><path
               d="m 414.75,310 h -8 v -15 c 0,-2.762 3.238,-5 6,-5 h 6 v 15 c 0,2.762 -1.238,5 -4,5 z"
               id="path77"
               inkscape:connector-curvature="0"
               style="fill:#99cd76" /></g><path
             enable-background="new    "
             d="m 428.281,281.469 c 0.906,0.906 1.469,2.156 1.469,3.531 v 15 15 c 0,1.375 -0.562,2.625 -1.469,3.531 -0.907,0.906 -2.156,1.469 -3.531,1.469 h -25 -25 c -1.375,0 -2.625,-0.562 -3.531,-1.469 l 57.062,-37.062 z"
             id="path79"
             inkscape:connector-curvature="0"
             style="opacity:0.07999998;fill:#ffffff" /><g
             id="g81"><path
               d="m 424.75,281 c 2.206,0 4,1.794 4,4 v 30 c 0,2.206 -1.794,4 -4,4 h -50 c -2.206,0 -4,-1.794 -4,-4 v -30 c 0,-2.206 1.794,-4 4,-4 h 50 m 0,-1 h -50 c -2.75,0 -5,2.25 -5,5 v 30 c 0,2.75 2.25,5 5,5 h 50 c 2.75,0 5,-2.25 5,-5 v -30 c 0,-2.75 -2.25,-5 -5,-5 l 0,0 z"
               id="path83"
               inkscape:connector-curvature="0"
               style="fill:#f8f8f9" /></g></g></g><g
         id="g85"><path
           d="m 589.75,315 c 0,2.75 -2.25,5 -5,5 h -50 c -2.75,0 -5,-2.25 -5,-5 v -30 c 0,-2.75 2.25,-5 5,-5 h 50 c 2.75,0 5,2.25 5,5 v 30 z"
           id="path87"
           inkscape:connector-curvature="0"
           style="fill:#f3f4f4" /><g
           id="g89"><g
             id="g91"><circle
               cx="556.58398"
               cy="300"
               r="10"
               id="circle93"
               sodipodi:cx="556.58398"
               sodipodi:cy="300"
               sodipodi:rx="10"
               sodipodi:ry="10"
               style="fill:#009fda"
               d="m 566.58398,300 c 0,5.52285 -4.47715,10 -10,10 -5.52284,0 -10,-4.47715 -10,-10 0,-5.52285 4.47716,-10 10,-10 5.52285,0 10,4.47715 10,10 z" /><path
               d="m 555.75,290 c 5,0 9.999,4.478 9.999,10 0,5.521 -4.999,10 -9.999,10 v -20 z"
               id="path95"
               inkscape:connector-curvature="0"
               style="fill:#009fda" /><path
               d="m 555.75,310 v -20 h 7.167 c 5,0 9.999,4.478 9.999,10 0,5.521 -4.999,10 -9.999,10 h -7.167 z"
               id="path97"
               inkscape:connector-curvature="0"
               style="fill:#009fda" /><circle
               cx="556.58398"
               cy="300"
               r="9.4379997"
               id="circle99"
               sodipodi:cx="556.58398"
               sodipodi:cy="300"
               sodipodi:rx="9.4379997"
               sodipodi:ry="9.4379997"
               style="fill:#f3f4f4"
               d="m 566.02198,300 c 0,5.21246 -4.22553,9.438 -9.438,9.438 -5.21246,0 -9.438,-4.22554 -9.438,-9.438 0,-5.21246 4.22554,-9.438 9.438,-9.438 5.21247,0 9.438,4.22554 9.438,9.438 z" /><g
               id="g101"><path
                 d="m 561.188,300 c 0,-2.727 -2.438,-5.008 -4.438,-5.609 v 11.218 c 2,-0.601 4.438,-2.88 4.438,-5.609 z"
                 id="path103"
                 inkscape:connector-curvature="0"
                 style="fill:#009fda" /></g><g
               id="g105"><path
                 d="m 549.312,300 c 0,2.727 2.438,5.008 4.438,5.609 V 294.39 c -2,0.602 -4.438,2.882 -4.438,5.61 z"
                 id="path107"
                 inkscape:connector-curvature="0"
                 style="fill:#009fda" /></g></g><path
             enable-background="new    "
             d="m 588.281,281.469 c 0.906,0.906 1.469,2.156 1.469,3.531 v 15 15 c 0,1.375 -0.562,2.625 -1.469,3.531 -0.907,0.906 -2.156,1.469 -3.531,1.469 h -25 -25 c -1.375,0 -2.625,-0.562 -3.531,-1.469 l 57.062,-37.062 z"
             id="path109"
             inkscape:connector-curvature="0"
             style="opacity:0.07999998;fill:#ffffff" /><g
             id="g111"><path
               d="m 584.75,281 c 2.206,0 4,1.794 4,4 v 30 c 0,2.206 -1.794,4 -4,4 h -50 c -2.206,0 -4,-1.794 -4,-4 v -30 c 0,-2.206 1.794,-4 4,-4 h 50 m 0,-1 h -50 c -2.75,0 -5,2.25 -5,5 v 30 c 0,2.75 2.25,5 5,5 h 50 c 2.75,0 5,-2.25 5,-5 v -30 c 0,-2.75 -2.25,-5 -5,-5 l 0,0 z"
               id="path113"
               inkscape:connector-curvature="0"
               style="fill:#f8f8f9" /></g></g></g><g
         id="g115"><path
           d="m 509.75,315 c 0,2.75 -2.25,5 -5,5 h -50 c -2.75,0 -5,-2.25 -5,-5 v -30 c 0,-2.75 2.25,-5 5,-5 h 50 c 2.75,0 5,2.25 5,5 v 30 z"
           id="path117"
           inkscape:connector-curvature="0"
           style="fill:#fff9f0" /><g
           id="g119"><path
             d="m 464.885,299.943 c 0,1.002 -0.285,1.769 -0.854,2.302 -0.571,0.532 -1.395,0.799 -2.472,0.799 h -1.724 v -6.085 h 1.91 c 0.994,0 1.765,0.263 2.313,0.787 0.552,0.524 0.827,1.257 0.827,2.197 z m -1.34,0.034 c 0,-1.307 -0.578,-1.96 -1.73,-1.96 h -0.688 v 3.961 h 0.554 c 1.243,10e-4 1.864,-0.667 1.864,-2.001 z"
             id="path121"
             inkscape:connector-curvature="0"
             style="fill:#414042" /><path
             d="m 465.976,303.044 v -6.085 h 1.29 v 6.085 h -1.29 z"
             id="path123"
             inkscape:connector-curvature="0"
             style="fill:#414042" /><path
             d="m 472.391,301.354 c 0,0.551 -0.197,0.982 -0.594,1.299 -0.396,0.316 -0.945,0.476 -1.65,0.476 -0.648,0 -1.224,-0.123 -1.724,-0.366 v -1.199 c 0.411,0.185 0.759,0.312 1.043,0.389 0.284,0.074 0.545,0.111 0.781,0.111 0.282,0 0.5,-0.055 0.651,-0.162 0.148,-0.107 0.227,-0.27 0.227,-0.482 0,-0.119 -0.033,-0.225 -0.101,-0.318 -0.065,-0.094 -0.164,-0.184 -0.294,-0.269 -0.129,-0.085 -0.392,-0.224 -0.788,-0.412 -0.371,-0.175 -0.649,-0.344 -0.837,-0.504 -0.187,-0.16 -0.334,-0.347 -0.445,-0.562 -0.111,-0.215 -0.166,-0.465 -0.166,-0.75 0,-0.538 0.182,-0.961 0.547,-1.269 0.366,-0.309 0.869,-0.462 1.514,-0.462 0.316,0 0.618,0.037 0.905,0.112 0.287,0.074 0.588,0.181 0.901,0.316 l -0.416,1.003 c -0.325,-0.133 -0.595,-0.228 -0.807,-0.279 -0.213,-0.052 -0.422,-0.079 -0.626,-0.079 -0.245,0 -0.433,0.056 -0.562,0.171 -0.131,0.114 -0.196,0.262 -0.196,0.445 0,0.114 0.026,0.212 0.079,0.298 0.053,0.085 0.137,0.166 0.252,0.245 0.115,0.079 0.389,0.221 0.818,0.427 0.568,0.272 0.958,0.545 1.17,0.818 0.212,0.271 0.318,0.606 0.318,1.003 z"
             id="path125"
             inkscape:connector-curvature="0"
             style="fill:#414042" /><path
             d="m 476.078,297.945 c -0.486,0 -0.861,0.184 -1.128,0.547 -0.268,0.365 -0.399,0.875 -0.399,1.526 0,1.356 0.509,2.035 1.527,2.035 0.428,0 0.943,-0.104 1.553,-0.32 v 1.082 c -0.5,0.209 -1.058,0.312 -1.674,0.312 -0.885,0 -1.562,-0.27 -2.031,-0.807 -0.469,-0.536 -0.703,-1.307 -0.703,-2.312 0,-0.633 0.116,-1.187 0.347,-1.662 0.229,-0.478 0.561,-0.841 0.992,-1.095 0.433,-0.254 0.938,-0.381 1.518,-0.381 0.591,0 1.186,0.143 1.781,0.429 l -0.416,1.049 c -0.229,-0.108 -0.456,-0.202 -0.688,-0.283 -0.231,-0.081 -0.457,-0.12 -0.679,-0.12 z"
             id="path127"
             inkscape:connector-curvature="0"
             style="fill:#414042" /><path
             d="m 487.959,296.959 h 1.303 l -2.067,6.085 h -1.407 l -2.064,-6.085 h 1.304 l 1.145,3.621 c 0.063,0.215 0.131,0.462 0.198,0.748 0.066,0.285 0.109,0.48 0.127,0.592 0.03,-0.255 0.134,-0.699 0.312,-1.34 l 1.149,-3.621 z"
             id="path129"
             inkscape:connector-curvature="0"
             style="fill:#414042" /><path
             d="m 493.532,303.044 h -3.505 v -6.085 h 3.505 v 1.058 h -2.215 v 1.336 h 2.062 v 1.057 h -2.062 v 1.568 h 2.215 v 1.066 z"
             id="path131"
             inkscape:connector-curvature="0"
             style="fill:#414042" /><path
             d="m 496.092,300.709 v 2.335 h -1.29 v -6.085 h 1.773 c 0.827,0 1.438,0.15 1.836,0.452 0.396,0.301 0.595,0.757 0.595,1.371 0,0.357 -0.099,0.677 -0.295,0.955 -0.197,0.279 -0.476,0.498 -0.836,0.656 0.915,1.366 1.511,2.251 1.789,2.65 h -1.432 l -1.453,-2.335 -0.687,10e-4 0,0 z m 0,-1.049 h 0.417 c 0.407,0 0.709,-0.068 0.903,-0.203 0.193,-0.137 0.291,-0.351 0.291,-0.642 0,-0.289 -0.1,-0.493 -0.298,-0.616 -0.198,-0.123 -0.505,-0.183 -0.921,-0.183 h -0.394 l 0.002,1.644 0,0 z"
             id="path133"
             inkscape:connector-curvature="0"
             style="fill:#414042" /><circle
             cx="480.81601"
             cy="300.00201"
             r="3.043"
             id="circle135"
             sodipodi:cx="480.81601"
             sodipodi:cy="300.00201"
             sodipodi:rx="3.043"
             sodipodi:ry="3.043"
             style="fill:#e6a124"
             d="m 483.85901,300.00201 c 0,1.68061 -1.3624,3.043 -3.043,3.043 -1.6806,0 -3.043,-1.36239 -3.043,-3.043 0,-1.6806 1.3624,-3.043 3.043,-3.043 1.6806,0 3.043,1.3624 3.043,3.043 z" /></g><path
           d="m 509.75,307.5 v 7.5 c 0,0.688 -0.141,1.344 -0.395,1.941 -0.255,0.597 -0.621,1.137 -1.074,1.59 -0.453,0.453 -0.992,0.819 -1.59,1.074 -0.599,0.254 -1.254,0.395 -1.941,0.395 h -22.457 -22.457 l 49.914,-12.5 z"
           id="path137"
           inkscape:connector-curvature="0"
           style="fill:#e6a124" /><path
           enable-background="new    "
           d="m 508.281,281.469 c 0.906,0.906 1.469,2.156 1.469,3.531 v 15 15 c 0,1.375 -0.562,2.625 -1.469,3.531 -0.907,0.906 -2.156,1.469 -3.531,1.469 h -25 -25 c -1.375,0 -2.625,-0.562 -3.531,-1.469 l 57.062,-37.062 z"
           id="path139"
           inkscape:connector-curvature="0"
           style="opacity:0.07999998;fill:#ffffff" /><g
           id="g141"><path
             d="m 504.75,281 c 2.206,0 4,1.794 4,4 v 30 c 0,2.206 -1.794,4 -4,4 h -50 c -2.206,0 -4,-1.794 -4,-4 v -30 c 0,-2.206 1.794,-4 4,-4 h 50 m 0,-1 h -50 c -2.75,0 -5,2.25 -5,5 v 30 c 0,2.75 2.25,5 5,5 h 50 c 2.75,0 5,-2.25 5,-5 v -30 c 0,-2.75 -2.25,-5 -5,-5 l 0,0 z"
             id="path143"
             inkscape:connector-curvature="0"
             style="fill:#f7f5f2" /></g></g><g
         id="g145"><path
           d="m 189.75,315 c 0,2.75 -2.25,5 -5,5 h -50 c -2.75,0 -5,-2.25 -5,-5 v -30 c 0,-2.75 2.25,-5 5,-5 h 50 c 2.75,0 5,2.25 5,5 v 30 z"
           id="path147"
           inkscape:connector-curvature="0"
           style="fill:#f3f4f4" /><path
           d="m 130.75,290 v -5 c 0,-2.75 2.25,-5 5,-5 h 48 c 2.75,0 5,2.25 5,5 v 5"
           id="path149"
           inkscape:connector-curvature="0"
           style="fill:#5565af" /><path
           d="m 188.75,310 v 5 c 0,2.75 -2.25,4 -5,4 h -48 c -2.75,0 -5,-1.25 -5,-4 v -5"
           id="path151"
           inkscape:connector-curvature="0"
           style="fill:#e6a124" /><g
           id="g153"><path
             d="m 147.137,303.379 c 0.406,-1.15 0.691,-1.887 0.859,-2.211 l 3.375,-6.875 h 2.469 l -5.844,11.422 h -2.609 l -0.992,-11.422 h 2.305 l 0.398,6.875 c 0.02,0.234 0.031,0.582 0.031,1.039 -0.012,0.537 -0.027,0.928 -0.047,1.172 h 0.055 z"
             id="path155"
             inkscape:connector-curvature="0"
             style="fill:#5565af" /><path
             d="m 152.809,305.715 2.438,-11.422 h 2.383 l -2.438,11.422 h -2.383 z"
             id="path157"
             inkscape:connector-curvature="0"
             style="fill:#5565af" /><path
             d="m 164.934,302.34 c 0,1.09 -0.387,1.949 -1.156,2.582 -0.771,0.633 -1.816,0.949 -3.133,0.949 -1.152,0 -2.078,-0.234 -2.781,-0.703 v -2.141 c 1.004,0.562 1.938,0.844 2.797,0.844 0.582,0 1.039,-0.109 1.367,-0.332 0.328,-0.221 0.492,-0.523 0.492,-0.91 0,-0.223 -0.035,-0.42 -0.105,-0.59 -0.07,-0.168 -0.172,-0.326 -0.301,-0.473 -0.131,-0.146 -0.453,-0.41 -0.969,-0.797 -0.719,-0.517 -1.225,-1.025 -1.516,-1.532 -0.293,-0.505 -0.438,-1.049 -0.438,-1.633 0,-0.672 0.16,-1.271 0.484,-1.801 0.322,-0.528 0.781,-0.939 1.379,-1.234 0.596,-0.294 1.281,-0.441 2.059,-0.441 1.129,0 2.164,0.258 3.102,0.773 l -0.852,1.82 c -0.812,-0.385 -1.562,-0.578 -2.25,-0.578 -0.434,0 -0.787,0.117 -1.062,0.352 -0.277,0.234 -0.414,0.545 -0.414,0.93 0,0.318 0.086,0.596 0.258,0.832 0.172,0.237 0.557,0.551 1.156,0.941 0.629,0.417 1.102,0.877 1.414,1.379 0.312,0.505 0.469,1.091 0.469,1.763 z"
             id="path159"
             inkscape:connector-curvature="0"
             style="fill:#5565af" /><path
             d="m 172.598,302.996 h -3.695 l -1.344,2.719 h -2.5 l 5.984,-11.469 h 2.914 l 1.148,11.469 h -2.32 l -0.187,-2.719 z m -0.118,-2.031 -0.203,-2.734 c -0.053,-0.682 -0.078,-1.341 -0.078,-1.977 v -0.281 c -0.23,0.625 -0.514,1.287 -0.852,1.984 l -1.469,3.008 h 2.602 z"
             id="path161"
             inkscape:connector-curvature="0"
             style="fill:#5565af" /></g><path
           d="M 159.75,280"
           id="path163"
           inkscape:connector-curvature="0"
           style="fill:#ffffff" /><path
           enable-background="new    "
           d="m 188.281,281.469 c 0.906,0.906 1.469,2.156 1.469,3.531 v 15 15 c 0,1.375 -0.562,2.625 -1.469,3.531 -0.907,0.906 -2.156,1.469 -3.531,1.469 h -25 -25 c -1.375,0 -2.625,-0.562 -3.531,-1.469 l 57.062,-37.062 z"
           id="path165"
           inkscape:connector-curvature="0"
           style="opacity:0.03999999;fill:#ffffff" /><g
           id="g167"><path
             d="m 184.75,281 c 2.206,0 4,1.794 4,4 v 30 c 0,2.206 -1.794,4 -4,4 h -50 c -2.206,0 -4,-1.794 -4,-4 v -30 c 0,-2.206 1.794,-4 4,-4 h 50 m 0,-1 h -50 c -2.75,0 -5,2.25 -5,5 v 30 c 0,2.75 2.25,5 5,5 h 50 c 2.75,0 5,-2.25 5,-5 v -30 c 0,-2.75 -2.25,-5 -5,-5 l 0,0 z"
             id="path169"
             inkscape:connector-curvature="0"
             style="fill:#f8f8f9" /></g></g></g><g
       id="g171" /></g></svg>